<?xml  version="1.0" encoding="UTF-8"?>
<!DOCTYPE svg PUBLIC "-//W3C//DTD SVG 1.0//EN" "http://www.w3.org/TR/2001/REC-SVG-20010904/DTD/svg10.dtd" >
<svg xmlns="http://www.w3.org/2000/svg" >
<metadata>
<version>1.0</version>
<id><![CDATA[Futura W01 Bold Oblique]]></id>
<vendor>Monotype Imaging Inc.</vendor>
<credits>
<name>Fonts.com WebFonts</name>
<URL>http://webfonts.fonts.com</URL>
<role>Home of the Web fonts</role>
</credits>
<license>
<URL>http://webfonts.fonts.com/Legal</URL>
</license>
<copyright><![CDATA[Part of the digitally encoded machine readable outline data for producing the Typefaces provided is copyrighted © 2006 Linotype GmbH, www.linotype.com. All rights reserved. This software is the property of Linotype GmbH, and may not be reproduced, used, displayed, modified, disclosed or transferred without the express written approval of Linotype GmbH.  Copyright © 1987, 1991, 1992, 1993 Adobe Systems Incorporated. All Rights Reserved.]]></copyright>
<trademark><![CDATA[Futura is either a registered trademark or a trademark of Bauer Types SA.]]></trademark>
<licensee>
<name></name>
</licensee>
</metadata>
<defs >
<font horiz-adv-x="630" id="504b662f-9558-41e7-ad31-da7a33a5d4d8">
<font-face font-family="" panose-1="2 11 8 2 2 2 4 9 2 4" ascent="1040" descent="-264" units-per-em="1000" alphabetic="0">
</font-face>
<missing-glyph horiz-adv-x="343" />

<glyph unicode="&#xA;" />
<glyph unicode="&#xD;" horiz-adv-x="0" />
<glyph unicode=" " horiz-adv-x="343" />
<glyph unicode="!" horiz-adv-x="384" d="M225 214Q249 214 269 205T302 180T322 143T324 97Q320 73 308 52T277 15T235 -10T188 -20Q164 -20 144 -11T111 14T92 51T90 97Q94 121 106 142T137 180T178 205T225 214ZM217 754H406L327 256H138L217 754Z"  />
<glyph unicode="&quot;" horiz-adv-x="500" d="M336 754L256 423H140L166 754H336ZM572 754L492 423H376L402 754H572Z"  />
<glyph unicode="#" horiz-adv-x="686" d="M485 726L414 523H515L586 726H691L620 523H700L682 410H584L541 286H635L617 173H499L439 0H333L393 173H292L232 0H126L186 173H95L113 286H226L269 410H173L191 523H308L379 726H485ZM332 286H434L479 410H375L332 286Z"  />
<glyph unicode="$" horiz-adv-x="686" d="M187 238Q202 222 221 207T261 180T307 161T355 154Q371 154 388 158T421 172T446 195T460 227Q463 248 452 261T421 284T373 302T318 322Q291 333 265 348T221 385T194 440T193 518Q200 562 221 603T274 676T346 729T434 753L453 874H546L527 753Q574 748 618 735T700 695L603 550Q579 572 548 585T482 599Q449 599 422 586T389 543Q386 526 394 513T416 491T446 476T474 465Q514 451 551 435T614 394T652 334T656 246Q639 141 574 84T408 2L388 -123H295L314 -4Q250 -4 189 21Q159 33 131 48T81 87L187 238Z"  />
<glyph unicode="%" horiz-adv-x="975" d="M346 764Q388 764 423 753T483 718T519 660T523 581Q515 535 494 501T441 443T370 407T287 395Q244 395 208 407T148 442T114 500T111 581Q118 626 140 660T193 717T264 752T346 764ZM330 664Q312 664 296 658T266 640T243 613T231 579Q226 544 247 520T303 495Q321 495 337 501T367 519T389 546T401 579Q407 614 386 639T330 664ZM874 754L317 0H219L776 754H874ZM806 359Q848 359 883 348T943 313T979 255T983 176Q976 130 955 96T902 38T831 2T748 -10Q705 -10 669 2T609 37T575 95T571 176Q578 221 600 255T653 312T724 347T806 359ZM791 259Q773 259 757 253T727 235T704 208T692 174Q687 139 708 115T764 90Q782 90 798 96T828 114T850 141T862 174Q868 209 847 234T791 259Z"  />
<glyph unicode="&amp;" horiz-adv-x="848" d="M361 315Q348 307 334 298T308 278T288 254T276 225Q273 208 279 195T295 174T320 161T350 156Q378 156 406 164T460 187L361 315ZM468 479Q482 486 496 495T522 516T542 542T553 571Q558 600 543 620T498 641Q472 641 451 624T425 579Q423 565 426 552T437 525T452 501T468 479ZM549 70Q486 32 416 6T276 -20Q227 -20 186 -6T116 36T74 104T69 196Q75 238 92 270T134 327T193 371T264 406L283 414L271 436Q264 448 257 461T244 490T236 525T237 567Q245 616 270 654T333 719T414 760T504 774Q549 774 589 760T658 720T701 656T708 569Q702 534 687 507T650 458T599 420T539 388L618 288Q650 313 679 339T734 395L828 289L717 187L707 178L848 0H603L549 70Z"  />
<glyph unicode="&apos;" horiz-adv-x="250" d="M329 754L249 423H133L159 754H329Z"  />
<glyph unicode="(" horiz-adv-x="352" d="M418 728Q379 678 349 623T295 510T256 392T231 274Q222 220 219 160T220 40T238 -76T274 -178L155 -240Q124 -189 107 -124T83 11T80 152T94 286Q104 348 123 415T171 549T237 677T319 790L418 728Z"  />
<glyph unicode=")" horiz-adv-x="352" d="M283 790Q311 739 328 678T353 550T360 416T348 286Q338 223 319 152T271 11T205 -124T119 -240L20 -178Q57 -133 87 -77T142 40T182 160T207 274Q216 332 219 391T218 509T200 623T164 728L283 790Z"  />
<glyph unicode="*" horiz-adv-x="483" d="M405 754L383 647L481 703L514 627L411 577L497 525L440 450L361 507L349 406H259L281 506L187 452L154 528L252 578L167 629L225 705L303 650L315 754H405Z"  />
<glyph unicode="+" horiz-adv-x="686" d="M349 513H499L470 332H651L627 182H446L418 0H268L296 182H115L139 332H320L349 513Z"  />
<glyph unicode="&#x2c;" horiz-adv-x="343" d="M353 191L116 -141H0L182 191H353Z"  />
<glyph unicode="-" horiz-adv-x="392" d="M401 396L377 246H91L115 396H401Z"  />
<glyph unicode="." horiz-adv-x="343" d="M205 214Q229 214 249 205T282 180T302 143T304 97Q300 73 288 52T257 15T215 -10T168 -20Q144 -20 124 -11T91 14T72 51T70 97Q74 121 86 142T117 180T158 205T205 214Z"  />
<glyph unicode="/" horiz-adv-x="579" d="M683 830L155 -93H12L540 830H683Z"  />
<glyph unicode="0" horiz-adv-x="686" d="M467 784Q551 784 605 748T690 654T727 523T722 377Q710 303 681 231T603 100T489 6T338 -30Q254 -30 199 6T114 100T77 230T82 377Q94 450 124 523T202 654T316 748T467 784ZM439 611Q401 611 373 585T325 522T293 445T277 378Q273 351 272 311T279 233T307 170T365 143Q403 143 431 169T480 233T511 310T527 378Q531 405 532 445T526 522T497 585T439 611Z"  />
<glyph unicode="1" horiz-adv-x="686" d="M254 588L280 754H584L465 0H269L362 588H254Z"  />
<glyph unicode="2" horiz-adv-x="686" d="M665 166L639 0H33L394 335Q413 353 432 374T466 419T493 468T509 520Q512 538 509 555T496 587T472 609T438 618Q398 618 373 591T342 526Q339 509 340 494H124Q136 559 166 612T240 704T340 763T464 784Q523 784 573 765T657 712T706 627T712 516Q706 475 693 443T659 382T612 327T552 275L418 166H665Z"  />
<glyph unicode="3" horiz-adv-x="686" d="M158 537Q173 597 203 642T274 719Q316 751 367 767T477 784Q528 784 569 770T639 728T679 659T683 565Q675 520 650 477T579 410Q608 402 628 382T659 336T674 280T672 220Q662 158 630 112T553 34T452 -14T340 -30Q275 -30 221 -11T128 55Q114 72 102 94T81 142T70 194T72 245H272Q265 200 289 169T360 138Q405 138 439 165T481 239Q484 260 479 278T461 310T432 332T393 340Q384 340 376 338T358 334L379 465H399Q437 465 464 487T498 548Q504 583 485 603T433 624Q395 624 370 599T340 537H158Z"  />
<glyph unicode="4" horiz-adv-x="686" d="M703 306L679 156H588L564 0H382L406 156H40L60 281L426 754H683L612 306H703ZM476 596H474L252 306H430L476 596Z"  />
<glyph unicode="5" horiz-adv-x="689" d="M397 588L370 502L433 507Q491 511 537 492T613 435T654 347T657 237Q648 177 615 124T528 33Q477 -3 416 -16T298 -30Q233 -30 173 -14T63 38L121 223Q159 184 208 160T317 136Q340 136 363 144T405 166T437 201T455 247Q460 281 449 305T417 345T368 368T310 376Q272 376 235 369T161 345L292 754H684L658 588H397Z"  />
<glyph unicode="6" horiz-adv-x="686" d="M647 754L393 499L394 497Q422 508 448 514T503 520Q558 520 599 498T666 439T701 355T703 255Q692 186 657 133T572 43T460 -11T334 -30Q307 -30 279 -27T223 -15T172 5T129 35Q90 73 71 128T61 242Q67 283 83 323T122 401T172 474T229 542L425 754H647ZM357 124Q383 124 406 134T449 161T481 200T498 249Q502 274 497 296T477 336T443 362T396 372Q370 372 347 363T304 336T271 297T253 249Q249 223 255 201T275 161T310 134T357 124Z"  />
<glyph unicode="7" horiz-adv-x="686" d="M164 588L190 754H809L257 0H42L479 588H164Z"  />
<glyph unicode="8" horiz-adv-x="686" d="M445 648Q428 648 412 642T382 624T361 597T349 563Q343 528 363 503T418 478Q435 478 451 484T481 502T503 529T515 563Q520 598 500 623T445 648ZM393 317Q374 317 357 310T325 290T301 260T288 223Q285 204 289 187T304 158T329 138T363 131Q382 131 399 138T431 157T455 187T468 223Q474 262 453 289T393 317ZM467 784Q515 784 559 771T635 731T682 664T690 569Q685 539 672 512T640 463T596 424T544 398L543 396Q607 373 640 323T662 198Q653 139 620 97T540 26T440 -16T338 -30Q289 -30 240 -17T154 25T97 96T86 198Q98 273 146 323T267 396L268 398Q243 407 224 423T193 462T176 512T176 569Q184 623 212 663T281 730T370 770T467 784Z"  />
<glyph unicode="9" horiz-adv-x="686" d="M158 0L413 254L411 256Q384 245 358 239T301 233Q245 233 204 255T138 314T103 399T102 499Q113 568 148 621T233 711T344 765T471 784Q526 784 581 769T675 719Q716 682 734 627T743 511Q737 470 721 430T683 352T633 279T575 211L381 0H158ZM447 629Q421 629 398 620T355 593T323 554T306 505Q302 479 308 457T327 417T361 391T408 381Q434 381 458 390T502 417T535 456T552 505Q556 531 550 553T530 593T494 619T447 629Z"  />
<glyph unicode=":" horiz-adv-x="343" d="M205 214Q229 214 249 205T282 180T302 143T304 97Q300 73 288 52T257 15T215 -10T168 -20Q144 -20 124 -11T91 14T72 51T70 97Q74 121 86 142T117 180T158 205T205 214ZM259 551Q283 551 303 542T336 517T355 480T357 434Q353 410 341 389T310 352T269 327T222 317Q198 317 178 326T145 351T125 388T123 434Q127 458 139 479T170 517T212 542T259 551Z"  />
<glyph unicode=";" horiz-adv-x="343" d="M339 191L102 -141H-14L168 191H339ZM305 551Q329 551 349 542T382 517T401 480T403 434Q399 410 387 389T356 352T315 327T268 317Q244 317 224 326T191 351T171 388T169 434Q173 458 185 479T216 517T258 542T305 551Z"  />
<glyph unicode="&lt;" horiz-adv-x="686" d="M149 317L667 499L643 349L354 258V256L614 165L590 15L130 197L149 317Z"  />
<glyph unicode="=" horiz-adv-x="686" d="M670 452L646 302H134L158 452H670ZM632 212L608 62H96L120 212H632Z"  />
<glyph unicode="&gt;" horiz-adv-x="686" d="M619 197L101 15L125 165L413 256V258L154 349L178 499L638 317L619 197Z"  />
<glyph unicode="?" horiz-adv-x="595" d="M256 446Q267 444 276 443T297 441Q318 441 342 447T387 465T423 496T442 540Q447 571 430 593T381 615Q346 615 325 593T299 539H100Q109 596 139 640T212 713T306 758T411 774Q459 774 501 759T576 712Q609 680 626 635T635 539Q628 497 609 463T561 401T496 355T420 323L408 252H225L256 446ZM314 214Q338 214 358 205T391 180T411 143T413 97Q409 73 397 52T366 15T324 -10T277 -20Q253 -20 233 -11T200 14T181 51T179 97Q183 121 195 142T226 180T267 205T314 214Z"  />
<glyph unicode="@" horiz-adv-x="740" d="M336 354Q330 317 345 290T397 262Q420 262 438 272T470 298T493 333T508 372Q520 415 505 442T452 469Q431 469 411 459T376 433T350 396T336 354ZM591 310Q588 301 584 289T578 267T578 250T592 244Q606 245 624 260T661 300T695 354T718 418Q731 481 719 530T675 612T596 663T491 680Q428 680 372 658T272 595T198 499T158 377Q147 308 161 252T210 157T296 96T412 74Q475 74 523 86T598 114L669 48Q612 21 541 1T389 -20Q308 -20 243 10T133 93T69 218T64 377Q77 462 118 534T220 660T354 743T509 774Q575 774 631 753T730 687Q775 642 795 584T805 453Q795 390 771 335T710 240Q665 192 621 171T542 152Q521 153 506 169T489 210Q466 187 432 170T352 152Q319 152 291 166T244 206T216 265T213 338Q220 384 241 427T295 504T367 558T455 579Q493 579 522 564T568 517L587 570H682L591 310Z"  />
<glyph unicode="A" horiz-adv-x="781" d="M276 131L204 0H-4L405 754H619L784 0H575L546 131H276ZM475 521H473L354 281H517L475 521Z"  />
<glyph unicode="B" horiz-adv-x="677" d="M283 150H308Q330 150 357 151T409 159T453 182T477 230Q482 264 469 281T432 305T381 312T329 312H309L283 150ZM64 0L183 754H463Q513 754 553 744T618 710T654 650T656 558Q648 507 623 467T548 404V402Q628 391 656 340T672 210Q663 151 633 111T561 46T469 11T366 0H64ZM332 458H354Q373 458 392 460T428 470T456 492T472 531Q476 557 468 571T445 593T409 602T369 604H355L332 458Z"  />
<glyph unicode="C" horiz-adv-x="660" d="M682 501Q658 542 616 563T523 584Q478 584 439 568T368 524T317 457T289 375Q282 330 290 293T321 228T379 186T460 170Q508 170 556 191T642 250L605 15Q554 0 513 -10T426 -20Q347 -20 280 8T161 91Q107 148 89 219T85 376Q97 454 137 525T240 652Q305 709 385 741T546 774Q594 774 636 764T719 736L682 501Z"  />
<glyph unicode="D" horiz-adv-x="752" d="M183 754H461Q540 754 605 725T714 645T777 525T784 377Q772 297 731 229T629 109T495 29T342 0H64L183 754ZM286 166H330Q374 166 415 178T490 216T547 282T580 377Q588 428 579 467T545 533T484 574T399 588H353L286 166Z"  />
<glyph unicode="E" horiz-adv-x="550" d="M353 588L333 462H554L527 296H306L286 166H519L493 0H64L183 754H612L586 588H353Z"  />
<glyph unicode="F" horiz-adv-x="542" d="M353 588L333 462H548L521 296H306L260 0H64L183 754H616L590 588H353Z"  />
<glyph unicode="G" horiz-adv-x="842" d="M882 421Q875 380 866 342T844 266T810 194T758 123Q690 45 605 10T424 -25Q335 -25 266 4T151 85T89 211T85 373Q99 465 140 540T244 668T387 750T558 779Q675 779 753 727T864 568L666 490Q655 544 619 577T522 610Q474 610 434 589T364 534T315 458T288 372Q281 328 287 286T314 210T368 157T450 136Q514 136 563 168T629 267H469L493 421H882Z"  />
<glyph unicode="H" horiz-adv-x="803" d="M616 463L662 754H858L739 0H543L591 309H308L260 0H64L183 754H379L333 463H616Z"  />
<glyph unicode="I" horiz-adv-x="324" d="M260 0H64L183 754H379L260 0Z"  />
<glyph unicode="J" horiz-adv-x="489" d="M548 754L467 245Q458 185 435 137T374 53T288 -1T175 -20Q112 -20 69 9T0 91L131 210Q144 187 162 167T200 146Q222 146 235 157T256 186T267 222T273 257L352 754H548Z"  />
<glyph unicode="K" horiz-adv-x="758" d="M618 754H861L504 397L769 0H515L313 327H311L260 0H64L183 754H379L330 443H332L618 754Z"  />
<glyph unicode="L" horiz-adv-x="495" d="M286 166H521L495 0H64L183 754H379L286 166Z"  />
<glyph unicode="M" horiz-adv-x="983" d="M266 754H459L548 351L774 754H969L964 0H768L781 434H779L530 0H452L347 434H345L214 0H19L266 754Z"  />
<glyph unicode="N" horiz-adv-x="881" d="M183 754H379L665 293H667L740 754H936L817 0H621L335 462H333L260 0H64L183 754Z"  />
<glyph unicode="O" horiz-adv-x="887" d="M566 779Q647 779 718 751T838 671T911 548T921 391Q907 299 864 223T757 92T611 6T439 -25Q348 -25 277 5T158 91T92 223T87 391Q101 476 147 547T259 670T405 750T566 779ZM536 589Q492 589 451 573T376 529T320 465T291 390Q283 341 293 300T328 229T389 182T469 165Q513 165 554 182T629 229T686 300T717 390Q723 429 712 465T677 528T616 572T536 589Z"  />
<glyph unicode="P" horiz-adv-x="661" d="M183 754H483Q544 754 592 740T671 695T715 618T718 506Q696 372 618 311T410 250H299L260 0H64L183 754ZM324 408H357Q384 408 409 409T456 419T492 446T513 500Q519 536 511 555T484 584T441 594T387 596H354L324 408Z"  />
<glyph unicode="Q" horiz-adv-x="887" d="M662 263Q683 287 696 316T715 374Q722 416 712 455T677 524T617 571T537 589Q493 589 452 573T377 529T320 465T291 390Q283 341 294 300T329 229T390 182T470 165Q501 165 531 175L429 295L618 318L662 263ZM702 -47L653 24Q605 -2 553 -13T439 -25Q348 -25 277 5T158 91T92 223T87 391Q101 476 147 547T259 670T405 750T566 779Q654 779 725 751T845 669T913 542T919 375Q907 300 872 235T780 110L886 -19L702 -47Z"  />
<glyph unicode="R" horiz-adv-x="680" d="M691 0H447L307 290H305L260 0H64L183 754H476Q532 754 577 741T654 699T698 626T701 522Q695 483 679 448T637 384T577 336T502 309L691 0ZM325 416H344Q368 416 393 419T439 432T475 460T495 510Q500 541 491 559T463 588T422 601T374 604H355L325 416Z"  />
<glyph unicode="S" horiz-adv-x="616" d="M566 560Q543 583 512 596T444 610Q430 610 415 606T387 594T363 575T350 547Q347 530 354 519T373 499T399 485T426 475L473 460Q510 448 541 432T594 391T625 334T627 254Q618 197 593 143T517 51Q466 13 407 -3T291 -20Q219 -20 155 2T40 66L149 224Q181 192 220 169T311 146Q328 146 345 150T378 164T404 187T418 222Q421 243 411 257T383 281T347 297T312 308Q268 321 233 335T175 373T142 431T142 521Q151 578 178 625T244 705T334 756T442 774Q499 774 560 758T668 712L566 560Z"  />
<glyph unicode="T" horiz-adv-x="533" d="M364 0H168L261 588H99L125 754H645L619 588H457L364 0Z"  />
<glyph unicode="U" horiz-adv-x="778" d="M837 754L770 330Q764 294 757 258T736 188T702 123T649 64Q622 41 590 25T523 -1T453 -15T385 -20Q352 -20 319 -16T254 -1T196 25T149 64Q125 91 114 122T101 188T102 258T112 330L179 754H375L312 357Q306 320 304 284T309 218T342 170T413 152Q460 152 489 170T537 217T563 283T578 357L641 754H837Z"  />
<glyph unicode="V" horiz-adv-x="761" d="M426 296L682 754H895L454 0H302L104 754H317L426 296Z"  />
<glyph unicode="W" horiz-adv-x="1117" d="M362 267H364L599 754H755L826 267H828L1047 754H1251L891 0H691L628 437H626L409 0H210L104 754H308L362 267Z"  />
<glyph unicode="X" horiz-adv-x="789" d="M165 754H406L490 559L636 754H877L580 403L796 0H560L440 246L229 0H-8L350 403L165 754Z"  />
<glyph unicode="Y" horiz-adv-x="714" d="M100 754H335L443 549L617 754H852L512 362L455 0H259L316 362L100 754Z"  />
<glyph unicode="Z" horiz-adv-x="707" d="M683 166L657 0H11L461 588H165L191 754H815L367 166H683Z"  />
<glyph unicode="[" horiz-adv-x="350" d="M169 -134H276L259 -240H13L177 790H423L406 684H299L169 -134Z"  />
<glyph unicode="\" horiz-adv-x="579" d="M302 830L552 0H410L158 830H302Z"  />
<glyph unicode="]" horiz-adv-x="350" d="M267 684H160L177 790H423L259 -240H13L30 -134H137L267 684Z"  />
<glyph unicode="^" horiz-adv-x="686" d="M167 407L407 784H527L647 407L522 340L439 609L270 340L167 407Z"  />
<glyph unicode="_" horiz-adv-x="500" d="M-19 -125L-11 -75H488L480 -125H-19Z"  />
<glyph unicode="`" horiz-adv-x="402" d="M315 820L429 648L339 589L192 740L315 820Z"  />
<glyph unicode="a" horiz-adv-x="682" d="M386 372Q358 372 335 363T295 338T266 301T251 256Q243 207 268 174T350 141Q406 141 441 174T485 256Q489 280 485 301T467 337T434 362T386 372ZM621 0H439L448 57H446Q415 19 370 1T279 -17Q222 -17 178 5T106 64T66 152T63 257Q72 312 98 361T164 448T255 508T363 530Q408 530 448 514T512 463L520 513H702L621 0Z"  />
<glyph unicode="b" horiz-adv-x="682" d="M185 830H367L309 463Q344 497 388 513T478 530Q535 530 579 508T651 449T690 362T692 257Q683 201 657 152T590 65T499 5T390 -17Q345 -17 305 1T247 57H245L236 0H54L185 830ZM405 372Q377 372 354 363T314 338T285 301T270 256Q262 207 287 174T369 141Q425 141 460 174T504 256Q508 280 504 301T486 337T453 362T405 372Z"  />
<glyph unicode="c" horiz-adv-x="483" d="M484 346Q466 361 444 371T396 382Q370 382 346 373T302 346T269 307T251 257Q242 201 272 166T359 131Q383 131 409 140T456 166L431 12Q399 -3 366 -10T299 -17Q242 -17 195 3T115 59T68 144T62 251Q72 313 102 364T176 452T277 509T393 530Q425 530 454 523T509 500L484 346Z"  />
<glyph unicode="d" horiz-adv-x="682" d="M455 57H453Q422 19 377 1T286 -17Q229 -17 185 5T113 64T73 152T70 257Q79 312 105 361T171 448T262 508T370 530Q415 530 455 514T519 463L577 830H759L628 0H446L455 57ZM393 372Q365 372 342 363T302 338T273 301T258 256Q250 207 275 174T357 141Q413 141 448 174T492 256Q496 280 492 301T474 337T441 362T393 372Z"  />
<glyph unicode="e" horiz-adv-x="610" d="M470 331Q469 368 443 390T380 412Q340 412 307 392T259 331H470ZM622 226H239Q231 170 254 141T335 112Q364 112 387 122T430 159H605Q587 114 556 81T487 26T404 -6T316 -17Q252 -17 201 1T115 53T66 139T62 256Q72 320 101 371T173 457T271 511T389 530Q456 530 505 510T584 453T624 364T625 245L622 226Z"  />
<glyph unicode="f" horiz-adv-x="388" d="M260 0H78L135 363H71L95 513H159L169 578Q173 605 178 628T191 673T214 716T250 758Q290 798 340 819T442 840Q463 840 481 836T517 822L492 665Q477 672 463 677T431 682Q396 682 379 661T354 596L341 513H468L444 363H317L260 0Z"  />
<glyph unicode="g" horiz-adv-x="677" d="M630 50Q617 -32 588 -90T516 -185T414 -239T285 -256Q241 -256 194 -245T109 -209T46 -148T24 -60H228Q231 -86 256 -99Q278 -111 306 -111Q343 -111 367 -100T408 -69T432 -22T446 36L450 60Q409 25 368 8T276 -10Q220 -10 177 10T105 65T66 148T64 252Q73 308 100 358T167 447T260 507T371 530Q416 530 453 514T511 459H513L522 513H704L630 50ZM389 376Q361 376 338 367T298 342T269 305T254 260Q246 211 271 178T352 145Q408 145 444 178T488 260Q492 284 488 305T470 341T437 366T389 376Z"  />
<glyph unicode="h" horiz-adv-x="661" d="M373 830L312 448H314Q352 490 394 510T491 530Q540 530 574 515T627 471T652 403T650 314L601 0H419L460 263Q464 285 465 307T460 346T439 374T397 385Q370 385 350 375T317 347T295 307T283 263L242 0H60L191 830H373Z"  />
<glyph unicode="i" horiz-adv-x="302" d="M242 0H60L141 513H323L242 0ZM279 812Q300 812 317 804T346 782T363 750T365 710Q362 689 351 671T324 638T288 616T247 608Q226 608 209 616T180 638T163 670T161 710Q164 731 175 749T202 782T238 804T279 812Z"  />
<glyph unicode="j" horiz-adv-x="302" d="M201 -256H19L141 513H323L201 -256ZM279 812Q300 812 317 804T346 782T363 750T365 710Q362 689 351 671T324 638T288 616T247 608Q226 608 209 616T180 638T163 670T161 710Q164 731 175 749T202 782T238 804T279 812Z"  />
<glyph unicode="k" horiz-adv-x="688" d="M293 328L512 513H761L466 276L696 0H441L275 209L242 0H60L191 830H373L293 328Z"  />
<glyph unicode="l" horiz-adv-x="302" d="M242 0H60L191 830H373L242 0Z"  />
<glyph unicode="m" horiz-adv-x="989" d="M313 449H315Q354 492 396 511T489 530Q545 530 587 507T649 432Q683 480 734 505T838 530Q887 530 918 515T965 473T985 409T981 327L930 0H748L786 245Q789 265 792 289T792 335T775 370T733 385Q701 385 682 372T651 338T634 293T624 245L586 0H404L442 245Q445 266 448 291T447 338T429 374T384 389Q354 389 335 375T305 339T289 292T280 245L242 0H60L141 513H323L313 449Z"  />
<glyph unicode="n" horiz-adv-x="661" d="M312 447H314Q353 494 395 512T491 530Q543 530 577 515T630 471T653 404T651 317L601 0H419L458 250Q461 268 464 291T464 336T446 371T397 385Q369 385 350 376T317 350T296 312T284 266L242 0H60L141 513H323L312 447Z"  />
<glyph unicode="o" horiz-adv-x="662" d="M414 530Q476 530 529 512T619 459T673 373T680 256Q669 191 636 140T555 54T449 1T328 -17Q266 -17 213 1T123 54T69 139T62 256Q72 322 105 373T187 459T293 512T414 530ZM389 372Q361 372 338 363T298 338T269 301T254 256Q246 207 271 174T353 141Q409 141 444 174T488 256Q492 280 488 301T470 337T437 362T389 372Z"  />
<glyph unicode="p" horiz-adv-x="682" d="M308 455H310Q341 493 386 511T476 530Q533 530 577 508T650 448T689 360T692 255Q683 199 657 150T590 64T500 5T392 -17Q347 -17 307 -1T243 49L195 -256H13L135 513H317L308 455ZM405 372Q377 372 354 363T314 338T285 301T270 256Q262 207 287 174T369 141Q425 141 460 174T504 256Q508 280 504 301T486 337T453 362T405 372Z"  />
<glyph unicode="q" horiz-adv-x="682" d="M587 -256H405L453 49Q419 15 374 -1T284 -17Q227 -17 183 4T111 63T72 150T70 255Q79 310 105 359T172 447T264 507T372 530Q417 530 457 512T516 455H518L527 513H709L587 -256ZM393 372Q365 372 342 363T302 338T273 301T258 256Q250 207 275 174T357 141Q413 141 448 174T492 256Q496 280 492 301T474 337T441 362T393 372Z"  />
<glyph unicode="r" horiz-adv-x="453" d="M309 429H311Q345 477 391 498T492 520H527L499 345Q482 356 464 359T425 362Q387 362 361 350T317 318T289 269T274 207L242 0H60L141 513H323L309 429Z"  />
<glyph unicode="s" horiz-adv-x="513" d="M459 381Q439 392 414 399T365 406Q357 406 347 404T328 398T311 388T302 371Q300 358 308 350T328 338T354 331T377 326Q408 320 433 309T476 279T500 236T502 174Q494 123 468 87T403 28T320 -6T230 -17Q175 -17 125 -2T32 42L118 169Q130 159 146 150T181 134T218 122T254 117Q263 117 273 119T292 126T308 138T317 156Q320 171 312 179T288 193T253 203T212 213Q192 219 173 227T141 251T121 290T120 348Q127 395 152 429T212 486T290 519T374 530Q418 530 459 523T538 497L459 381Z"  />
<glyph unicode="t" horiz-adv-x="360" d="M259 0H77L134 363H75L99 513H158L182 667H364L340 513H443L419 363H316L259 0Z"  />
<glyph unicode="u" horiz-adv-x="659" d="M320 513L276 239Q272 215 272 195T281 159T305 136T350 128Q378 128 397 136T428 159T447 194T458 239L502 513H684L635 204Q625 141 597 99T529 31T437 -6T327 -17Q269 -17 221 -6T140 30T93 98T89 204L138 513H320Z"  />
<glyph unicode="v" horiz-adv-x="623" d="M351 250L515 513H719L370 0H254L66 513H270L351 250Z"  />
<glyph unicode="w" horiz-adv-x="996" d="M352 235L525 513H633L718 235L891 513H1092L743 0H625L542 281L371 0H253L66 513H268L352 235Z"  />
<glyph unicode="x" horiz-adv-x="712" d="M114 513H345L420 407L529 513H764L515 278L727 0H488L380 152L224 0H-15L285 278L114 513Z"  />
<glyph unicode="y" horiz-adv-x="654" d="M66 513H276L371 250L547 513H754L221 -256H17L244 70L66 513Z"  />
<glyph unicode="z" horiz-adv-x="559" d="M551 151L528 0H8L306 362H97L121 513H633L335 151H551Z"  />
<glyph unicode="{" horiz-adv-x="352" d="M88 331Q95 331 107 331T131 336T153 352T166 384L206 637Q212 677 229 706T268 753T309 781T344 790H441L422 670H397Q380 670 370 665T354 651T346 632T341 611L306 386Q301 354 287 334T256 303T222 287T193 280V278Q204 276 220 273T249 258T269 224T270 161L235 -61Q233 -72 232 -82T234 -101T245 -115T271 -120H296L277 -240H180Q166 -240 149 -231T116 -204T93 -157T91 -89L131 164Q135 190 129 203T113 221T90 227T71 227L88 331Z"  />
<glyph unicode="|" horiz-adv-x="579" d="M331 -214H181L339 786H489L331 -214Z"  />
<glyph unicode="}" horiz-adv-x="352" d="M351 227Q343 227 332 227T308 222T286 203T271 164L231 -89Q225 -128 208 -156T170 -203T128 -231T94 -240H-2L16 -120H41Q58 -120 68 -115T84 -102T92 -83T97 -61L132 161Q138 201 152 223T184 257T218 272T247 278V280Q236 282 220 287T191 303T171 334T168 386L203 611Q205 621 206 632T204 651T193 664T167 670H142L161 790H258Q271 790 289 781T322 754T344 706T346 637L306 384Q303 363 309 352T326 337T348 332T368 331L351 227Z"  />
<glyph unicode="~" horiz-adv-x="686" d="M680 276Q663 254 642 227T596 176T541 136T481 120Q444 120 417 136T365 168Q350 178 336 188T310 206T285 220T262 226Q252 226 242 218T221 196T201 169T184 142L86 238Q105 257 127 284T174 336T228 378T287 395Q318 395 349 378T406 339Q427 320 455 305T506 289Q516 289 527 298T548 321T567 348T582 373L680 276Z"  />
<glyph unicode="&#xA0;" horiz-adv-x="343" />
<glyph unicode="&#xA1;" horiz-adv-x="384" d="M276 532Q300 532 320 523T353 498T372 461T374 415Q370 391 358 370T327 333T286 308T239 298Q215 298 195 307T162 332T142 369T140 415Q144 439 156 460T187 498T229 523T276 532ZM327 255L248 -243H59L138 255H327Z"  />
<glyph unicode="&#xA2;" horiz-adv-x="686" d="M411 109Q359 111 317 133T246 192T205 276T200 377Q209 433 235 481T301 564T390 622T496 650L511 743H604L588 644L644 627L618 464Q603 481 583 491T536 502Q509 502 485 493T441 468T408 430T391 380Q387 354 392 332T411 293T444 267T491 257Q517 257 544 266T591 295L565 132Q550 127 535 123T505 116L488 10H395L411 109Z"  />
<glyph unicode="&#xA3;" horiz-adv-x="686" d="M383 300Q386 288 386 270T382 234T374 197T362 166L372 162Q386 157 404 151T441 140T480 132T515 128Q538 128 554 141T574 177H696Q686 136 668 101T623 39T561 -1T481 -16Q444 -16 413 -7T347 12Q335 16 319 20T287 28T254 34T224 37Q205 37 185 29T156 0H26Q37 32 56 63T101 120T158 161T226 177Q246 209 244 240T227 300H66L78 376H186Q173 404 169 436T170 504Q179 558 208 607T282 695Q332 737 388 752T504 768Q652 768 705 700T737 484H543L549 519Q552 538 548 555T533 585T508 606T473 614Q427 614 398 583T361 508Q355 471 360 438T381 376H537L525 300H383Z"  />
<glyph unicode="&#xA4;" horiz-adv-x="686" d="M149 218Q131 249 124 290T124 378Q132 425 151 469T201 543L145 610L217 673L273 606Q309 630 356 644T450 658Q496 658 536 644T601 606L679 673L731 611L659 548Q678 516 686 472T687 380Q679 333 657 291T605 219L661 153L590 88L534 154Q500 128 454 114T361 100Q312 100 271 114T201 155L125 89L73 152L149 218ZM426 508Q398 508 373 498T327 469T292 427T274 375Q269 346 275 323T297 284T334 259T385 250Q413 250 438 259T483 284T517 323T536 375Q540 403 534 427T514 469T477 497T426 508Z"  />
<glyph unicode="&#xA5;" horiz-adv-x="686" d="M561 446L492 362H690L678 286H480L435 0H251L296 286H96L108 362H307L263 446H121L133 522H225L108 754H330L429 549L594 754H816L624 522H715L703 446H561Z"  />
<glyph unicode="&#xA6;" horiz-adv-x="579" d="M350 -89H200L240 161H390L350 -89ZM430 411H280L319 661H469L430 411Z"  />
<glyph unicode="&#xA7;" horiz-adv-x="686" d="M481 187Q494 196 504 211T516 241Q518 256 513 267T499 288T477 303T455 316L304 399Q288 391 278 377T264 345Q261 329 266 318T282 298T304 283T327 270L481 187ZM499 589Q497 615 481 632T437 649Q414 649 396 636T373 598Q370 579 377 566T396 542T424 525T452 510L554 454Q583 439 607 423T648 387T672 339T673 272Q665 224 636 184T564 115Q587 92 593 56T594 -15Q585 -69 557 -109T487 -177T397 -217T299 -230Q247 -230 199 -216T115 -172T64 -100T59 3H242Q238 -17 244 -33T262 -62T291 -81T326 -88Q357 -88 382 -71T412 -21Q415 -3 409 9T392 31T367 48T341 61L195 138Q147 164 121 203T104 303Q112 352 143 394T216 466Q198 487 192 520T190 583Q197 631 222 666T283 726T362 762T448 774Q493 774 533 764T602 732T646 674T656 589H499Z"  />
<glyph unicode="&#xA8;" horiz-adv-x="604" d="M300 800Q341 800 365 772T383 702Q380 681 369 664T343 633T308 612T269 604Q227 604 203 632T186 702Q189 722 199 740T225 771T260 792T300 800ZM556 800Q597 800 621 772T639 702Q636 681 625 664T599 633T564 612T525 604Q483 604 459 632T442 702Q445 722 455 740T481 771T516 792T556 800Z"  />
<glyph unicode="&#xA9;" horiz-adv-x="800" d="M396 -20Q313 -20 246 11T133 96T69 222T63 376Q76 459 118 531T223 658T362 743T522 774Q604 774 671 743T784 658T848 532T855 376Q842 294 800 222T695 96T556 11T396 -20ZM411 74Q475 74 533 96T639 159T718 254T761 376Q771 443 757 498T709 594T623 657T507 680Q442 680 383 658T278 595T199 499T157 376Q146 310 160 255T209 159T294 97T411 74ZM584 459Q584 496 560 514T498 532Q468 532 444 520T400 487T369 439T351 382Q346 354 351 327T369 278T403 243T453 229Q488 229 520 249T560 306H650Q640 270 619 242T570 193T509 163T441 152Q391 152 354 170T292 218T259 290T257 380Q265 429 286 471T341 544T417 592T511 609Q583 609 628 570T674 459H584Z"  />
<glyph unicode="&#xAA;" horiz-adv-x="409" d="M294 540Q326 540 351 560T381 610Q385 639 366 659T316 680Q284 680 259 660T229 610Q227 595 231 583T243 561T265 546T294 540ZM358 490H356Q337 467 308 457T249 446Q212 446 183 459T136 494T110 547T107 610Q112 643 129 673T171 725T230 761T300 774Q329 774 355 764T397 734L402 764H520L471 456H353L358 490Z"  />
<glyph unicode="&#xAB;" horiz-adv-x="603" d="M573 146L458 74L325 320L536 566L625 497L471 320L573 146ZM324 146L209 74L76 320L287 566L376 497L222 320L324 146Z"  />
<glyph unicode="&#xAC;" horiz-adv-x="686" d="M496 302H134L158 452H670L621 141H471L496 302Z"  />
<glyph unicode="&#xAD;" horiz-adv-x="392" d="M401 396L377 246H91L115 396H401Z"  />
<glyph unicode="&#xAE;" horiz-adv-x="800" d="M396 -20Q313 -20 246 11T133 96T69 222T63 376Q76 459 118 531T223 658T362 743T522 774Q604 774 671 743T784 658T848 532T855 376Q842 294 800 222T695 96T556 11T396 -20ZM411 74Q475 74 533 96T639 159T718 254T761 376Q771 443 757 498T709 594T623 657T507 680Q442 680 383 658T278 595T199 499T157 376Q146 310 160 255T209 159T294 97T411 74ZM617 175H517L453 349H389L361 175H269L334 587H534Q570 587 598 583T646 565T673 527T675 461Q665 404 633 379T545 349L617 175ZM509 411Q544 411 564 422T590 473Q593 489 586 497T565 510T536 514T504 515H415L399 411H509Z"  />
<glyph unicode="&#xAF;" horiz-adv-x="603" d="M646 752L629 645H177L194 752H646Z"  />
<glyph unicode="&#xB0;" horiz-adv-x="400" d="M448 623Q443 592 427 565T387 518T334 486T274 474Q242 474 217 485T175 517T151 565T148 623Q152 654 168 681T207 729T260 762T321 774Q352 774 377 762T420 730T445 682T448 623ZM363 624Q368 650 352 669T308 689Q282 689 260 670T233 624Q229 597 245 578T288 559Q315 559 337 578T363 624Z"  />
<glyph unicode="&#xB1;" horiz-adv-x="686" d="M371 654H521L499 512H680L656 362H475L452 220H302L325 362H144L168 512H349L371 654ZM622 150L599 0H87L110 150H622Z"  />
<glyph unicode="&#xB2;" horiz-adv-x="412" d="M302 413H462L446 314H52L285 515Q310 536 332 565T359 626Q362 647 350 665T312 684Q286 684 270 668T249 629Q248 624 248 620T248 610H108Q116 649 135 681T182 736T246 771T327 784Q366 784 398 773T453 741T486 690T490 623Q482 574 457 543T388 479L302 413Z"  />
<glyph unicode="&#xB3;" horiz-adv-x="412" d="M207 461Q202 434 218 416T265 398Q294 398 315 414T342 458Q346 484 329 501T285 518Q279 518 273 517T261 515L273 593H286Q311 593 328 606T350 643Q354 663 342 675T307 688Q283 688 267 673T247 636H129Q148 707 203 745T335 784Q368 784 395 776T440 750T467 709T471 653Q466 626 450 600T404 560Q423 555 436 544T456 516T466 482T466 446Q460 409 440 381T391 335T325 307T253 297Q211 297 176 308T115 348Q105 358 97 371T83 400T76 430T77 461H207Z"  />
<glyph unicode="&#xB4;" horiz-adv-x="402" d="M249 589L177 648L345 820L444 740L249 589Z"  />
<glyph unicode="&#xB5;" horiz-adv-x="659" d="M320 513L276 239Q272 215 272 195T281 159T305 136T350 128Q378 128 397 136T428 159T447 194T458 239L502 513H684L635 204Q624 139 595 96T526 28T445 -7T367 -17Q319 -17 289 -1T244 32L198 -256H16L138 513H320Z"  />
<glyph unicode="&#xB6;" horiz-adv-x="686" d="M759 754L745 663H679L547 -170H446L577 662H484L353 -170H252L324 290Q281 294 244 306T180 343T139 407T127 505Q130 550 153 595T213 675T293 732T382 754H759Z"  />
<glyph unicode="&#xB7;" horiz-adv-x="343" d="M231 373Q255 373 275 364T308 339T327 302T329 256Q325 232 313 211T282 174T241 149T194 139Q170 139 150 148T117 173T97 210T95 256Q99 280 111 301T142 339T184 364T231 373Z"  />
<glyph unicode="&#xB8;" horiz-adv-x="380" d="M115 -237L45 -188L200 -30L289 -94L115 -237Z"  />
<glyph unicode="&#xB9;" horiz-adv-x="412" d="M198 667L214 766H411L339 314H212L268 667H198Z"  />
<glyph unicode="&#xBA;" horiz-adv-x="410" d="M327 774Q367 774 402 763T461 731T496 680T502 610Q496 571 475 541T422 489T353 457T275 446Q235 446 201 457T142 489T106 540T101 610Q107 649 128 679T180 731T249 763T327 774ZM312 679Q280 679 256 659T226 610Q221 581 239 561T290 541Q322 541 347 561T377 610Q382 639 363 659T312 679Z"  />
<glyph unicode="&#xBB;" horiz-adv-x="603" d="M232 320L134 497L245 566L378 320L167 74L76 146L232 320ZM481 320L383 497L494 566L627 320L416 74L325 146L481 320Z"  />
<glyph unicode="&#xBC;" horiz-adv-x="1029" d="M203 655L219 754H416L344 302H217L273 655H203ZM958 184L943 94H884L870 0H752L766 94H528L540 169L774 452H941L899 184H958ZM808 357H806L664 183H780L808 357ZM862 754L305 0H207L764 754H862Z"  />
<glyph unicode="&#xBD;" horiz-adv-x="1029" d="M203 655L219 754H416L344 302H217L273 655H203ZM784 99H944L929 0H535L767 201Q792 222 814 251T841 312Q844 333 832 351T794 370Q768 370 752 354T731 315Q730 310 730 306T730 296H590Q598 335 617 367T664 422T728 457T809 470Q848 470 880 459T935 427T968 376T972 309Q964 260 939 229T871 165L784 99ZM834 754L277 0H179L736 754H834Z"  />
<glyph unicode="&#xBE;" horiz-adv-x="1029" d="M1008 184L993 94H934L920 0H802L816 94H578L590 169L824 452H991L949 184H1008ZM858 357H856L714 183H830L858 357ZM948 754L391 0H293L850 754H948ZM328 563Q353 563 370 576T392 613Q395 633 383 645T349 658Q325 658 309 643T288 606H170Q189 677 244 715T376 754Q409 754 436 746T481 720T508 679T512 623Q507 596 491 570T445 530Q464 525 477 514T498 486T508 452T507 416Q501 379 481 351T432 305T366 277T294 267Q252 267 217 278T156 318Q136 338 124 370T118 431H248Q243 403 260 386Q276 368 306 368Q335 368 356 384T383 428Q388 454 370 471T326 488Q320 488 314 487T302 485L315 563H328Z"  />
<glyph unicode="&#xBF;" horiz-adv-x="595" d="M419 64Q396 69 377 69Q356 69 332 63T288 45T252 14T233 -30Q228 -61 245 -83T294 -105Q329 -105 350 -83T376 -29H575Q566 -86 536 -130T463 -203T369 -248T264 -264Q216 -264 174 -249T99 -202Q66 -170 49 -125T40 -29Q47 13 66 47T114 109T179 155T255 187L266 258H449L419 64ZM398 532Q422 532 442 523T475 498T494 461T496 415Q492 391 480 370T449 333T408 308T361 298Q337 298 317 307T284 332T264 369T262 415Q266 439 278 460T309 498T351 523T398 532Z"  />
<glyph unicode="&#xC0;" horiz-adv-x="781" d="M276 131L204 0H-4L405 754H619L784 0H575L546 131H276ZM475 521H473L354 281H517L475 521ZM518 1031L632 859L542 800L395 951L518 1031Z"  />
<glyph unicode="&#xC1;" horiz-adv-x="781" d="M276 131L204 0H-4L405 754H619L784 0H575L546 131H276ZM475 521H473L354 281H517L475 521ZM492 800L420 859L588 1031L687 951L492 800Z"  />
<glyph unicode="&#xC2;" horiz-adv-x="781" d="M276 131L204 0H-4L405 754H619L784 0H575L546 131H276ZM475 521H473L354 281H517L475 521ZM553 1040L748 876L658 792L531 903L370 792L309 876L553 1040Z"  />
<glyph unicode="&#xC3;" horiz-adv-x="781" d="M276 131L204 0H-4L405 754H619L784 0H575L546 131H276ZM475 521H473L354 281H517L475 521ZM322 827L323 838Q327 862 335 884T359 927Q376 950 402 966T457 983Q476 983 497 978T540 966T580 955T614 949Q633 949 642 959T660 985H745Q739 958 726 930T693 879T648 842T590 827Q571 827 553 833T516 845T480 858T444 864Q426 864 419 853T404 827H322Z"  />
<glyph unicode="&#xC4;" horiz-adv-x="781" d="M276 131L204 0H-4L405 754H619L784 0H575L546 131H276ZM475 521H473L354 281H517L475 521ZM422 1011Q463 1011 487 983T505 913Q502 892 491 875T465 844T430 823T391 815Q349 815 325 843T308 913Q311 933 321 951T347 982T382 1003T422 1011ZM678 1011Q719 1011 743 983T761 913Q758 892 747 875T721 844T686 823T647 815Q605 815 581 843T564 913Q567 933 577 951T603 982T638 1003T678 1011Z"  />
<glyph unicode="&#xC5;" horiz-adv-x="781" d="M276 131L204 0H-4L405 754H619L784 0H575L546 131H276ZM475 521H473L354 281H517L475 521ZM549 1011Q577 1011 604 1006T650 987T680 951T685 896Q680 864 664 842T623 807T571 787T515 781Q487 781 461 786T414 805T383 840T378 895Q383 927 400 949T440 985T492 1005T549 1011ZM539 939Q518 939 498 930T473 896Q469 872 487 863T526 853Q546 853 566 862T590 896Q594 920 577 929T539 939Z"  />
<glyph unicode="&#xC6;" horiz-adv-x="1026" d="M468 505L348 281H514L468 505ZM543 131H270L203 0H-4L406 754H868L903 588H655L681 462H928L964 296H715L744 166H992L1026 0H572L543 131Z"  />
<glyph unicode="&#xC7;" horiz-adv-x="660" d="M682 501Q658 542 616 563T523 584Q478 584 439 568T368 524T317 457T289 375Q282 330 290 293T321 228T379 186T460 170Q508 170 556 191T642 250L605 15Q554 0 513 -10T426 -20Q347 -20 280 8T161 91Q107 148 89 219T85 376Q97 454 137 525T240 652Q305 709 385 741T546 774Q594 774 636 764T719 736L682 501ZM280 -237L210 -188L365 -30L454 -94L280 -237Z"  />
<glyph unicode="&#xC8;" horiz-adv-x="550" d="M353 588L333 462H554L527 296H306L286 166H519L493 0H64L183 754H612L586 588H353ZM422 1031L536 859L446 800L299 951L422 1031Z"  />
<glyph unicode="&#xC9;" horiz-adv-x="550" d="M353 588L333 462H554L527 296H306L286 166H519L493 0H64L183 754H612L586 588H353ZM356 800L284 859L452 1031L551 951L356 800Z"  />
<glyph unicode="&#xCA;" horiz-adv-x="550" d="M353 588L333 462H554L527 296H306L286 166H519L493 0H64L183 754H612L586 588H353ZM437 1040L632 876L542 792L415 903L254 792L193 876L437 1040Z"  />
<glyph unicode="&#xCB;" horiz-adv-x="550" d="M353 588L333 462H554L527 296H306L286 166H519L493 0H64L183 754H612L586 588H353ZM306 1011Q347 1011 371 983T389 913Q386 892 375 875T349 844T314 823T275 815Q233 815 209 843T192 913Q195 933 205 951T231 982T266 1003T306 1011ZM562 1011Q603 1011 627 983T645 913Q642 892 631 875T605 844T570 823T531 815Q489 815 465 843T448 913Q451 933 461 951T487 982T522 1003T562 1011Z"  />
<glyph unicode="&#xCC;" horiz-adv-x="324" d="M260 0H64L183 754H379L260 0ZM296 1031L410 859L320 800L173 951L296 1031Z"  />
<glyph unicode="&#xCD;" horiz-adv-x="324" d="M260 0H64L183 754H379L260 0ZM258 800L186 859L354 1031L453 951L258 800Z"  />
<glyph unicode="&#xCE;" horiz-adv-x="324" d="M260 0H64L183 754H379L260 0ZM341 1040L536 876L446 792L319 903L158 792L97 876L341 1040Z"  />
<glyph unicode="&#xCF;" horiz-adv-x="324" d="M260 0H64L183 754H379L260 0ZM195 1011Q236 1011 260 983T278 913Q275 892 264 875T238 844T203 823T164 815Q122 815 98 843T81 913Q84 933 94 951T120 982T155 1003T195 1011ZM451 1011Q492 1011 516 983T534 913Q531 892 520 875T494 844T459 823T420 815Q378 815 354 843T337 913Q340 933 350 951T376 982T411 1003T451 1011Z"  />
<glyph unicode="&#xD0;" horiz-adv-x="752" d="M333 463H443L418 309H308L286 166H330Q374 166 415 178T490 216T547 282T580 377Q588 428 579 467T545 533T484 574T399 588H353L333 463ZM112 309H28L53 463H137L183 754H437Q526 754 596 726T713 648T778 528T784 377Q771 294 729 225T625 106T484 28T320 0H64L112 309Z"  />
<glyph unicode="&#xD1;" horiz-adv-x="881" d="M183 754H379L665 293H667L740 754H936L817 0H621L335 462H333L260 0H64L183 754ZM372 827L373 838Q377 862 385 884T409 927Q426 950 452 966T507 983Q526 983 547 978T590 966T630 955T664 949Q683 949 692 959T710 985H795Q789 958 776 930T743 879T698 842T640 827Q621 827 603 833T566 845T530 858T494 864Q476 864 469 853T454 827H372Z"  />
<glyph unicode="&#xD2;" horiz-adv-x="887" d="M566 779Q647 779 718 751T838 671T911 548T921 391Q907 299 864 223T757 92T611 6T439 -25Q348 -25 277 5T158 91T92 223T87 391Q101 476 147 547T259 670T405 750T566 779ZM536 589Q492 589 451 573T376 529T320 465T291 390Q283 341 293 300T328 229T389 182T469 165Q513 165 554 182T629 229T686 300T717 390Q723 429 712 465T677 528T616 572T536 589ZM571 1031L685 859L595 800L448 951L571 1031Z"  />
<glyph unicode="&#xD3;" horiz-adv-x="887" d="M566 779Q647 779 718 751T838 671T911 548T921 391Q907 299 864 223T757 92T611 6T439 -25Q348 -25 277 5T158 91T92 223T87 391Q101 476 147 547T259 670T405 750T566 779ZM536 589Q492 589 451 573T376 529T320 465T291 390Q283 341 293 300T328 229T389 182T469 165Q513 165 554 182T629 229T686 300T717 390Q723 429 712 465T677 528T616 572T536 589ZM545 800L473 859L641 1031L740 951L545 800Z"  />
<glyph unicode="&#xD4;" horiz-adv-x="887" d="M566 779Q647 779 718 751T838 671T911 548T921 391Q907 299 864 223T757 92T611 6T439 -25Q348 -25 277 5T158 91T92 223T87 391Q101 476 147 547T259 670T405 750T566 779ZM536 589Q492 589 451 573T376 529T320 465T291 390Q283 341 293 300T328 229T389 182T469 165Q513 165 554 182T629 229T686 300T717 390Q723 429 712 465T677 528T616 572T536 589ZM606 1040L801 876L711 792L584 903L423 792L362 876L606 1040Z"  />
<glyph unicode="&#xD5;" horiz-adv-x="887" d="M566 779Q647 779 718 751T838 671T911 548T921 391Q907 299 864 223T757 92T611 6T439 -25Q348 -25 277 5T158 91T92 223T87 391Q101 476 147 547T259 670T405 750T566 779ZM536 589Q492 589 451 573T376 529T320 465T291 390Q283 341 293 300T328 229T389 182T469 165Q513 165 554 182T629 229T686 300T717 390Q723 429 712 465T677 528T616 572T536 589ZM375 827L376 838Q380 862 388 884T412 927Q429 950 455 966T510 983Q529 983 550 978T593 966T633 955T667 949Q686 949 695 959T713 985H798Q792 958 779 930T746 879T701 842T643 827Q624 827 606 833T569 845T533 858T497 864Q479 864 472 853T457 827H375Z"  />
<glyph unicode="&#xD6;" horiz-adv-x="887" d="M566 779Q647 779 718 751T838 671T911 548T921 391Q907 299 864 223T757 92T611 6T439 -25Q348 -25 277 5T158 91T92 223T87 391Q101 476 147 547T259 670T405 750T566 779ZM536 589Q492 589 451 573T376 529T320 465T291 390Q283 341 293 300T328 229T389 182T469 165Q513 165 554 182T629 229T686 300T717 390Q723 429 712 465T677 528T616 572T536 589ZM475 1011Q516 1011 540 983T558 913Q555 892 544 875T518 844T483 823T444 815Q402 815 378 843T361 913Q364 933 374 951T400 982T435 1003T475 1011ZM731 1011Q772 1011 796 983T814 913Q811 892 800 875T774 844T739 823T700 815Q658 815 634 843T617 913Q620 933 630 951T656 982T691 1003T731 1011Z"  />
<glyph unicode="&#xD7;" horiz-adv-x="686" d="M151 407L274 513L400 361L573 513L662 407L489 256L615 106L493 0L366 150L193 0L103 106L278 256L151 407Z"  />
<glyph unicode="&#xD8;" horiz-adv-x="887" d="M638 560Q617 574 591 581T536 589Q492 589 451 573T376 529T320 465T291 390Q280 325 303 275L638 560ZM367 194Q410 165 469 165Q513 165 554 182T629 229T686 300T717 390Q724 439 706 481L367 194ZM131 129Q99 182 87 247T87 391Q101 476 147 547T259 670T405 750T566 779Q635 779 695 759T804 701L913 794L979 714L874 625Q906 578 919 519T921 391Q907 299 864 223T757 92T611 6T439 -25Q367 -25 307 -6T200 52L92 -40L27 40L131 129Z"  />
<glyph unicode="&#xD9;" horiz-adv-x="778" d="M837 754L770 330Q764 294 757 258T736 188T702 123T649 64Q622 41 590 25T523 -1T453 -15T385 -20Q352 -20 319 -16T254 -1T196 25T149 64Q125 91 114 122T101 188T102 258T112 330L179 754H375L312 357Q306 320 304 284T309 218T342 170T413 152Q460 152 489 170T537 217T563 283T578 357L641 754H837ZM516 1031L630 859L540 800L393 951L516 1031Z"  />
<glyph unicode="&#xDA;" horiz-adv-x="778" d="M837 754L770 330Q764 294 757 258T736 188T702 123T649 64Q622 41 590 25T523 -1T453 -15T385 -20Q352 -20 319 -16T254 -1T196 25T149 64Q125 91 114 122T101 188T102 258T112 330L179 754H375L312 357Q306 320 304 284T309 218T342 170T413 152Q460 152 489 170T537 217T563 283T578 357L641 754H837ZM490 800L418 859L586 1031L685 951L490 800Z"  />
<glyph unicode="&#xDB;" horiz-adv-x="778" d="M837 754L770 330Q764 294 757 258T736 188T702 123T649 64Q622 41 590 25T523 -1T453 -15T385 -20Q352 -20 319 -16T254 -1T196 25T149 64Q125 91 114 122T101 188T102 258T112 330L179 754H375L312 357Q306 320 304 284T309 218T342 170T413 152Q460 152 489 170T537 217T563 283T578 357L641 754H837ZM551 1040L746 876L656 792L529 903L368 792L307 876L551 1040Z"  />
<glyph unicode="&#xDC;" horiz-adv-x="778" d="M837 754L770 330Q764 294 757 258T736 188T702 123T649 64Q622 41 590 25T523 -1T453 -15T385 -20Q352 -20 319 -16T254 -1T196 25T149 64Q125 91 114 122T101 188T102 258T112 330L179 754H375L312 357Q306 320 304 284T309 218T342 170T413 152Q460 152 489 170T537 217T563 283T578 357L641 754H837ZM420 1011Q461 1011 485 983T503 913Q500 892 489 875T463 844T428 823T389 815Q347 815 323 843T306 913Q309 933 319 951T345 982T380 1003T420 1011ZM676 1011Q717 1011 741 983T759 913Q756 892 745 875T719 844T684 823T645 815Q603 815 579 843T562 913Q565 933 575 951T601 982T636 1003T676 1011Z"  />
<glyph unicode="&#xDD;" horiz-adv-x="714" d="M100 754H335L443 549L617 754H852L512 362L455 0H259L316 362L100 754ZM478 800L406 859L574 1031L673 951L478 800Z"  />
<glyph unicode="&#xDE;" horiz-adv-x="661" d="M183 754H379L360 634H464Q525 634 573 620T652 575T696 498T699 386Q677 252 599 191T391 130H280L260 0H64L183 754ZM305 288H338Q365 288 390 289T437 299T473 326T494 380Q500 416 492 435T465 464T422 474T368 476H335L305 288Z"  />
<glyph unicode="&#xDF;" horiz-adv-x="651" d="M153 589Q157 614 163 639T179 689T205 734T244 774Q289 810 344 825T453 840Q504 840 547 826T619 784T662 715T667 619Q658 565 629 530T553 462Q587 447 612 429T652 386T671 327T668 249Q664 223 655 195T631 140T598 90T556 49Q507 11 447 -3T331 -17H292L316 138Q344 137 370 144T417 168T452 207T471 259Q475 287 468 310T445 350T406 375T355 381L378 526Q420 524 451 543T490 607Q495 642 478 662T426 683Q399 683 382 673T355 647T340 611T332 569L242 0H60L107 297H55L78 442H130L153 589Z"  />
<glyph unicode="&#xE0;" horiz-adv-x="682" d="M386 372Q358 372 335 363T295 338T266 301T251 256Q243 207 268 174T350 141Q406 141 441 174T485 256Q489 280 485 301T467 337T434 362T386 372ZM621 0H439L448 57H446Q415 19 370 1T279 -17Q222 -17 178 5T106 64T66 152T63 257Q72 312 98 361T164 448T255 508T363 530Q408 530 448 514T512 463L520 513H702L621 0ZM455 820L569 648L479 589L332 740L455 820Z"  />
<glyph unicode="&#xE1;" horiz-adv-x="682" d="M386 372Q358 372 335 363T295 338T266 301T251 256Q243 207 268 174T350 141Q406 141 441 174T485 256Q489 280 485 301T467 337T434 362T386 372ZM621 0H439L448 57H446Q415 19 370 1T279 -17Q222 -17 178 5T106 64T66 152T63 257Q72 312 98 361T164 448T255 508T363 530Q408 530 448 514T512 463L520 513H702L621 0ZM409 589L337 648L505 820L604 740L409 589Z"  />
<glyph unicode="&#xE2;" horiz-adv-x="682" d="M386 372Q358 372 335 363T295 338T266 301T251 256Q243 207 268 174T350 141Q406 141 441 174T485 256Q489 280 485 301T467 337T434 362T386 372ZM621 0H439L448 57H446Q415 19 370 1T279 -17Q222 -17 178 5T106 64T66 152T63 257Q72 312 98 361T164 448T255 508T363 530Q408 530 448 514T512 463L520 513H702L621 0ZM470 829L665 665L575 581L448 692L287 581L226 665L470 829Z"  />
<glyph unicode="&#xE3;" horiz-adv-x="682" d="M386 372Q358 372 335 363T295 338T266 301T251 256Q243 207 268 174T350 141Q406 141 441 174T485 256Q489 280 485 301T467 337T434 362T386 372ZM621 0H439L448 57H446Q415 19 370 1T279 -17Q222 -17 178 5T106 64T66 152T63 257Q72 312 98 361T164 448T255 508T363 530Q408 530 448 514T512 463L520 513H702L621 0ZM240 616L241 627Q245 651 253 673T277 716Q294 739 320 755T375 772Q394 772 415 767T458 755T498 744T532 738Q551 738 560 748T578 774H663Q657 747 644 719T611 668T566 631T508 616Q489 616 471 622T434 634T398 647T362 653Q344 653 337 642T322 616H240Z"  />
<glyph unicode="&#xE4;" horiz-adv-x="682" d="M386 372Q358 372 335 363T295 338T266 301T251 256Q243 207 268 174T350 141Q406 141 441 174T485 256Q489 280 485 301T467 337T434 362T386 372ZM621 0H439L448 57H446Q415 19 370 1T279 -17Q222 -17 178 5T106 64T66 152T63 257Q72 312 98 361T164 448T255 508T363 530Q408 530 448 514T512 463L520 513H702L621 0ZM339 800Q380 800 404 772T422 702Q419 681 408 664T382 633T347 612T308 604Q266 604 242 632T225 702Q228 722 238 740T264 771T299 792T339 800ZM595 800Q636 800 660 772T678 702Q675 681 664 664T638 633T603 612T564 604Q522 604 498 632T481 702Q484 722 494 740T520 771T555 792T595 800Z"  />
<glyph unicode="&#xE5;" horiz-adv-x="682" d="M386 372Q358 372 335 363T295 338T266 301T251 256Q243 207 268 174T350 141Q406 141 441 174T485 256Q489 280 485 301T467 337T434 362T386 372ZM621 0H439L448 57H446Q415 19 370 1T279 -17Q222 -17 178 5T106 64T66 152T63 257Q72 312 98 361T164 448T255 508T363 530Q408 530 448 514T512 463L520 513H702L621 0ZM469 815Q497 815 524 810T570 791T600 755T605 700Q600 668 584 646T543 611T491 591T435 585Q407 585 381 590T334 609T303 644T298 699Q303 731 320 753T360 789T412 809T469 815ZM459 743Q438 743 418 734T393 700Q389 676 407 667T446 657Q466 657 486 666T510 700Q514 724 497 733T459 743Z"  />
<glyph unicode="&#xE6;" horiz-adv-x="940" d="M804 331Q803 368 777 390T714 412Q674 412 641 392T593 331H804ZM308 218Q296 218 282 215T256 206T235 189T223 163Q221 147 227 137T245 120T270 111T297 108Q308 108 324 110T355 119T382 136T396 162Q399 179 390 190T367 207T337 215T308 218ZM570 226Q562 170 585 141T666 112Q695 112 718 122T761 159H936Q918 114 887 81T818 26T735 -6T647 -17Q617 -17 587 -12T531 4T485 35T457 84Q412 36 353 10T233 -17Q196 -17 160 -7T95 23T52 74T44 148Q51 194 74 226T129 279T201 309T282 319Q319 319 350 313T413 293L415 308Q419 335 412 352T389 379T352 394T308 398Q270 398 234 390T160 370L182 506Q220 516 258 523T334 530Q361 530 389 526T441 511T485 483T513 439Q532 462 556 479T608 507T664 524T720 530Q787 530 836 510T915 453T955 364T956 245L953 226H570Z"  />
<glyph unicode="&#xE7;" horiz-adv-x="483" d="M484 346Q466 361 444 371T396 382Q370 382 346 373T302 346T269 307T251 257Q242 201 272 166T359 131Q383 131 409 140T456 166L431 12Q399 -3 366 -10T299 -17Q242 -17 195 3T115 59T68 144T62 251Q72 313 102 364T176 452T277 509T393 530Q425 530 454 523T509 500L484 346ZM167 -237L97 -188L252 -30L341 -94L167 -237Z"  />
<glyph unicode="&#xE8;" horiz-adv-x="610" d="M470 331Q469 368 443 390T380 412Q340 412 307 392T259 331H470ZM622 226H239Q231 170 254 141T335 112Q364 112 387 122T430 159H605Q587 114 556 81T487 26T404 -6T316 -17Q252 -17 201 1T115 53T66 139T62 256Q72 320 101 371T173 457T271 511T389 530Q456 530 505 510T584 453T624 364T625 245L622 226ZM394 820L508 648L418 589L271 740L394 820Z"  />
<glyph unicode="&#xE9;" horiz-adv-x="610" d="M470 331Q469 368 443 390T380 412Q340 412 307 392T259 331H470ZM622 226H239Q231 170 254 141T335 112Q364 112 387 122T430 159H605Q587 114 556 81T487 26T404 -6T316 -17Q252 -17 201 1T115 53T66 139T62 256Q72 320 101 371T173 457T271 511T389 530Q456 530 505 510T584 453T624 364T625 245L622 226ZM378 589L306 648L474 820L573 740L378 589Z"  />
<glyph unicode="&#xEA;" horiz-adv-x="610" d="M470 331Q469 368 443 390T380 412Q340 412 307 392T259 331H470ZM622 226H239Q231 170 254 141T335 112Q364 112 387 122T430 159H605Q587 114 556 81T487 26T404 -6T316 -17Q252 -17 201 1T115 53T66 139T62 256Q72 320 101 371T173 457T271 511T389 530Q456 530 505 510T584 453T624 364T625 245L622 226ZM434 829L629 665L539 581L412 692L251 581L190 665L434 829Z"  />
<glyph unicode="&#xEB;" horiz-adv-x="610" d="M470 331Q469 368 443 390T380 412Q340 412 307 392T259 331H470ZM622 226H239Q231 170 254 141T335 112Q364 112 387 122T430 159H605Q587 114 556 81T487 26T404 -6T316 -17Q252 -17 201 1T115 53T66 139T62 256Q72 320 101 371T173 457T271 511T389 530Q456 530 505 510T584 453T624 364T625 245L622 226ZM303 800Q344 800 368 772T386 702Q383 681 372 664T346 633T311 612T272 604Q230 604 206 632T189 702Q192 722 202 740T228 771T263 792T303 800ZM559 800Q600 800 624 772T642 702Q639 681 628 664T602 633T567 612T528 604Q486 604 462 632T445 702Q448 722 458 740T484 771T519 792T559 800Z"  />
<glyph unicode="&#xEC;" horiz-adv-x="302" d="M242 0H60L141 513H323L242 0ZM251 820L365 648L275 589L128 740L251 820Z"  />
<glyph unicode="&#xED;" horiz-adv-x="302" d="M242 0H60L141 513H323L242 0ZM215 589L143 648L311 820L410 740L215 589Z"  />
<glyph unicode="&#xEE;" horiz-adv-x="302" d="M242 0H60L141 513H323L242 0ZM281 829L476 665L386 581L259 692L98 581L37 665L281 829Z"  />
<glyph unicode="&#xEF;" horiz-adv-x="302" d="M242 0H60L141 513H323L242 0ZM150 800Q191 800 215 772T233 702Q230 681 219 664T193 633T158 612T119 604Q77 604 53 632T36 702Q39 722 49 740T75 771T110 792T150 800ZM406 800Q447 800 471 772T489 702Q486 681 475 664T449 633T414 612T375 604Q333 604 309 632T292 702Q295 722 305 740T331 771T366 792T406 800Z"  />
<glyph unicode="&#xF0;" horiz-adv-x="662" d="M281 848Q318 830 341 817T381 795T407 779T426 765L563 832L617 759L504 704Q545 664 583 623T648 533T686 427T687 297Q674 214 638 155T551 57T442 1T322 -17Q274 -17 223 -2T133 47T72 131T62 255Q72 317 103 366T179 448T275 500T377 518Q396 518 409 516T435 512Q415 542 391 571T339 624L198 555L144 626L262 684Q237 701 211 716T158 744L281 848ZM389 372Q361 372 338 363T298 338T269 301T254 256Q246 207 271 174T353 141Q409 141 444 174T488 256Q492 280 488 301T470 337T437 362T389 372Z"  />
<glyph unicode="&#xF1;" horiz-adv-x="661" d="M312 447H314Q353 494 395 512T491 530Q543 530 577 515T630 471T653 404T651 317L601 0H419L458 250Q461 268 464 291T464 336T446 371T397 385Q369 385 350 376T317 350T296 312T284 266L242 0H60L141 513H323L312 447ZM229 616L230 627Q234 651 242 673T266 716Q283 739 309 755T364 772Q383 772 404 767T447 755T487 744T521 738Q540 738 549 748T567 774H652Q646 747 633 719T600 668T555 631T497 616Q478 616 460 622T423 634T387 647T351 653Q333 653 326 642T311 616H229Z"  />
<glyph unicode="&#xF2;" horiz-adv-x="662" d="M414 530Q476 530 529 512T619 459T673 373T680 256Q669 191 636 140T555 54T449 1T328 -17Q266 -17 213 1T123 54T69 139T62 256Q72 322 105 373T187 459T293 512T414 530ZM389 372Q361 372 338 363T298 338T269 301T254 256Q246 207 271 174T353 141Q409 141 444 174T488 256Q492 280 488 301T470 337T437 362T389 372ZM420 820L534 648L444 589L297 740L420 820Z"  />
<glyph unicode="&#xF3;" horiz-adv-x="662" d="M414 530Q476 530 529 512T619 459T673 373T680 256Q669 191 636 140T555 54T449 1T328 -17Q266 -17 213 1T123 54T69 139T62 256Q72 322 105 373T187 459T293 512T414 530ZM389 372Q361 372 338 363T298 338T269 301T254 256Q246 207 271 174T353 141Q409 141 444 174T488 256Q492 280 488 301T470 337T437 362T389 372ZM404 589L332 648L500 820L599 740L404 589Z"  />
<glyph unicode="&#xF4;" horiz-adv-x="662" d="M414 530Q476 530 529 512T619 459T673 373T680 256Q669 191 636 140T555 54T449 1T328 -17Q266 -17 213 1T123 54T69 139T62 256Q72 322 105 373T187 459T293 512T414 530ZM389 372Q361 372 338 363T298 338T269 301T254 256Q246 207 271 174T353 141Q409 141 444 174T488 256Q492 280 488 301T470 337T437 362T389 372ZM460 829L655 665L565 581L438 692L277 581L216 665L460 829Z"  />
<glyph unicode="&#xF5;" horiz-adv-x="662" d="M414 530Q476 530 529 512T619 459T673 373T680 256Q669 191 636 140T555 54T449 1T328 -17Q266 -17 213 1T123 54T69 139T62 256Q72 322 105 373T187 459T293 512T414 530ZM389 372Q361 372 338 363T298 338T269 301T254 256Q246 207 271 174T353 141Q409 141 444 174T488 256Q492 280 488 301T470 337T437 362T389 372ZM230 616L231 627Q235 651 243 673T267 716Q284 739 310 755T365 772Q384 772 405 767T448 755T488 744T522 738Q541 738 550 748T568 774H653Q647 747 634 719T601 668T556 631T498 616Q479 616 461 622T424 634T388 647T352 653Q334 653 327 642T312 616H230Z"  />
<glyph unicode="&#xF6;" horiz-adv-x="662" d="M414 530Q476 530 529 512T619 459T673 373T680 256Q669 191 636 140T555 54T449 1T328 -17Q266 -17 213 1T123 54T69 139T62 256Q72 322 105 373T187 459T293 512T414 530ZM389 372Q361 372 338 363T298 338T269 301T254 256Q246 207 271 174T353 141Q409 141 444 174T488 256Q492 280 488 301T470 337T437 362T389 372ZM329 800Q370 800 394 772T412 702Q409 681 398 664T372 633T337 612T298 604Q256 604 232 632T215 702Q218 722 228 740T254 771T289 792T329 800ZM585 800Q626 800 650 772T668 702Q665 681 654 664T628 633T593 612T554 604Q512 604 488 632T471 702Q474 722 484 740T510 771T545 792T585 800Z"  />
<glyph unicode="&#xF7;" horiz-adv-x="686" d="M651 332L627 182H115L139 332H651ZM363 127Q393 127 410 106T423 55Q418 25 394 4T340 -17Q310 -17 292 4T279 55Q284 85 308 106T363 127ZM427 531Q457 531 474 510T487 459Q482 429 458 408T404 387Q374 387 356 408T343 459Q348 489 372 510T427 531Z"  />
<glyph unicode="&#xF8;" horiz-adv-x="662" d="M431 365Q412 372 389 372Q361 372 338 363T298 338T269 301T254 256Q252 245 252 234T254 214L431 365ZM311 148Q328 141 353 141Q409 141 444 174T488 256Q490 267 490 277T488 299L311 148ZM99 81Q73 115 64 158T62 256Q72 322 105 373T187 459T293 512T414 530Q508 530 577 490L659 560L719 498L643 432Q668 398 678 354T680 256Q669 191 636 140T555 54T449 1T328 -17Q282 -17 241 -7T165 23L83 -47L23 16L99 81Z"  />
<glyph unicode="&#xF9;" horiz-adv-x="659" d="M320 513L276 239Q272 215 272 195T281 159T305 136T350 128Q378 128 397 136T428 159T447 194T458 239L502 513H684L635 204Q625 141 597 99T529 31T437 -6T327 -17Q269 -17 221 -6T140 30T93 98T89 204L138 513H320ZM414 820L528 648L438 589L291 740L414 820Z"  />
<glyph unicode="&#xFA;" horiz-adv-x="659" d="M320 513L276 239Q272 215 272 195T281 159T305 136T350 128Q378 128 397 136T428 159T447 194T458 239L502 513H684L635 204Q625 141 597 99T529 31T437 -6T327 -17Q269 -17 221 -6T140 30T93 98T89 204L138 513H320ZM408 589L336 648L504 820L603 740L408 589Z"  />
<glyph unicode="&#xFB;" horiz-adv-x="659" d="M320 513L276 239Q272 215 272 195T281 159T305 136T350 128Q378 128 397 136T428 159T447 194T458 239L502 513H684L635 204Q625 141 597 99T529 31T437 -6T327 -17Q269 -17 221 -6T140 30T93 98T89 204L138 513H320ZM459 829L654 665L564 581L437 692L276 581L215 665L459 829Z"  />
<glyph unicode="&#xFC;" horiz-adv-x="659" d="M320 513L276 239Q272 215 272 195T281 159T305 136T350 128Q378 128 397 136T428 159T447 194T458 239L502 513H684L635 204Q625 141 597 99T529 31T437 -6T327 -17Q269 -17 221 -6T140 30T93 98T89 204L138 513H320ZM328 800Q369 800 393 772T411 702Q408 681 397 664T371 633T336 612T297 604Q255 604 231 632T214 702Q217 722 227 740T253 771T288 792T328 800ZM584 800Q625 800 649 772T667 702Q664 681 653 664T627 633T592 612T553 604Q511 604 487 632T470 702Q473 722 483 740T509 771T544 792T584 800Z"  />
<glyph unicode="&#xFD;" horiz-adv-x="654" d="M66 513H276L371 250L547 513H754L221 -256H17L244 70L66 513ZM415 589L343 648L511 820L610 740L415 589Z"  />
<glyph unicode="&#xFE;" horiz-adv-x="682" d="M308 455H310Q341 493 386 511T476 530Q533 530 577 508T650 448T689 360T692 255Q683 199 657 150T590 64T500 5T392 -17Q347 -17 307 -1T243 49L195 -256H13L185 830H367L308 455ZM405 372Q377 372 354 363T314 338T285 301T270 256Q262 207 287 174T369 141Q425 141 460 174T504 256Q508 280 504 301T486 337T453 362T405 372Z"  />
<glyph unicode="&#xFF;" horiz-adv-x="654" d="M66 513H276L371 250L547 513H754L221 -256H17L244 70L66 513ZM340 800Q381 800 405 772T423 702Q420 681 409 664T383 633T348 612T309 604Q267 604 243 632T226 702Q229 722 239 740T265 771T300 792T340 800ZM596 800Q637 800 661 772T679 702Q676 681 665 664T639 633T604 612T565 604Q523 604 499 632T482 702Q485 722 495 740T521 771T556 792T596 800Z"  />
<glyph unicode="&#x131;" horiz-adv-x="302" d="M242 0H60L141 513H323L242 0Z"  />
<glyph unicode="&#x152;" horiz-adv-x="1140" d="M673 83Q613 27 551 1T416 -25Q335 -25 269 7T157 95T92 224T85 377Q98 457 140 530T245 658T385 746T543 779Q689 779 768 685L779 754H1203L1177 588H948L928 462H1141L1114 296H901L881 166H1110L1084 0H660L673 83ZM534 589Q490 589 449 573T375 527T319 460T289 377Q282 333 293 295T328 228T387 182T467 165Q511 165 552 182T626 227T681 294T710 377Q717 421 707 459T673 527T614 572T534 589Z"  />
<glyph unicode="&#x153;" horiz-adv-x="1022" d="M881 331Q880 368 854 390T791 412Q751 412 718 392T670 331H881ZM388 372Q364 372 342 363T301 338T270 301T253 256Q249 232 255 211T274 175T308 150T352 141Q376 141 398 150T439 174T470 211T487 256Q491 280 485 301T466 337T432 362T388 372ZM1036 226H653Q645 170 668 141T749 112Q778 112 801 122T844 159H1019Q1001 114 970 81T901 26T818 -6T730 -17Q661 -17 612 2T536 72Q510 47 485 30T432 3T376 -12T314 -17Q251 -17 200 1T114 53T65 139T61 256Q71 320 101 371T177 457T279 511T398 530Q462 530 509 514T596 453Q617 475 641 490T693 514T748 526T803 530Q870 530 919 510T998 453T1038 364T1039 245L1036 226Z"  />
<glyph unicode="&#x160;" horiz-adv-x="616" d="M566 560Q543 583 512 596T444 610Q430 610 415 606T387 594T363 575T350 547Q347 530 354 519T373 499T399 485T426 475L473 460Q510 448 541 432T594 391T625 334T627 254Q618 197 593 143T517 51Q466 13 407 -3T291 -20Q219 -20 155 2T40 66L149 224Q181 192 220 169T311 146Q328 146 345 150T378 164T404 187T418 222Q421 243 411 257T383 281T347 297T312 308Q268 321 233 335T175 373T142 431T142 521Q151 578 178 625T244 705T334 756T442 774Q499 774 560 758T668 712L566 560ZM326 1040L452 928L614 1040L677 955L431 792L238 955L326 1040Z"  />
<glyph unicode="&#x161;" horiz-adv-x="513" d="M459 381Q439 392 414 399T365 406Q357 406 347 404T328 398T311 388T302 371Q300 358 308 350T328 338T354 331T377 326Q408 320 433 309T476 279T500 236T502 174Q494 123 468 87T403 28T320 -6T230 -17Q175 -17 125 -2T32 42L118 169Q130 159 146 150T181 134T218 122T254 117Q263 117 273 119T292 126T308 138T317 156Q320 171 312 179T288 193T253 203T212 213Q192 219 173 227T141 251T121 290T120 348Q127 395 152 429T212 486T290 519T374 530Q418 530 459 523T538 497L459 381ZM243 829L369 717L531 829L594 744L348 581L155 744L243 829Z"  />
<glyph unicode="&#x178;" horiz-adv-x="714" d="M100 754H335L443 549L617 754H852L512 362L455 0H259L316 362L100 754ZM398 1011Q439 1011 463 983T481 913Q478 892 467 875T441 844T406 823T367 815Q325 815 301 843T284 913Q287 933 297 951T323 982T358 1003T398 1011ZM654 1011Q695 1011 719 983T737 913Q734 892 723 875T697 844T662 823T623 815Q581 815 557 843T540 913Q543 933 553 951T579 982T614 1003T654 1011Z"  />
<glyph unicode="&#x17D;" horiz-adv-x="707" d="M683 166L657 0H11L461 588H165L191 754H815L367 166H683ZM382 1040L508 928L670 1040L733 955L487 792L294 955L382 1040Z"  />
<glyph unicode="&#x17E;" horiz-adv-x="559" d="M551 151L528 0H8L306 362H97L121 513H633L335 151H551ZM266 829L392 717L554 829L617 744L371 581L178 744L266 829Z"  />
<glyph unicode="&#x192;" horiz-adv-x="686" d="M660 505L635 429H525L430 150Q409 85 383 27T308 -85Q254 -142 197 -164T71 -181L-33 -172L22 -7Q39 -10 56 -13T92 -16Q132 -16 158 -1T206 52Q223 82 237 122T263 196L341 429H255L279 505H367L405 613Q420 656 437 692T490 761Q528 797 571 813T663 830Q697 830 729 823T788 796L734 639Q719 651 700 660T660 669Q638 669 624 658T599 631T582 596T569 560L550 505H660Z"  />
<glyph unicode="&#x2C6;" horiz-adv-x="590" d="M424 829L619 665L529 581L402 692L241 581L180 665L424 829Z"  />
<glyph unicode="&#x2C7;" horiz-adv-x="590" d="M280 829L406 717L568 829L631 744L385 581L192 744L280 829Z"  />
<glyph unicode="&#x2DA;" horiz-adv-x="457" d="M356 815Q384 815 411 810T457 791T487 755T492 700Q487 668 471 646T430 611T378 591T322 585Q294 585 268 590T221 609T190 644T185 699Q190 731 207 753T247 789T299 809T356 815ZM346 743Q325 743 305 734T280 700Q276 676 294 667T333 657Q353 657 373 666T397 700Q401 724 384 733T346 743Z"  />
<glyph unicode="&#x2DC;" horiz-adv-x="549" d="M173 616L174 627Q178 651 186 673T210 716Q227 739 253 755T308 772Q327 772 348 767T391 755T431 744T465 738Q484 738 493 748T511 774H596Q590 747 577 719T544 668T499 631T441 616Q422 616 404 622T367 634T331 647T295 653Q277 653 270 642T255 616H173Z"  />
<glyph unicode="&#x2013;" horiz-adv-x="500" d="M562 396L538 246H38L62 396H562Z"  />
<glyph unicode="&#x2014;" horiz-adv-x="1000" d="M932 396L908 246H168L192 396H932Z"  />
<glyph unicode="&#x2018;" horiz-adv-x="372" d="M85 423L322 754H438L255 423H85Z"  />
<glyph unicode="&#x2019;" horiz-adv-x="372" d="M472 754L235 423H119L302 754H472Z"  />
<glyph unicode="&#x201A;" horiz-adv-x="338" d="M349 191L112 -140H-3L179 191H349Z"  />
<glyph unicode="&#x201C;" horiz-adv-x="628" d="M341 423L578 754H694L511 423H341ZM85 423L322 754H438L255 423H85Z"  />
<glyph unicode="&#x201D;" horiz-adv-x="628" d="M472 754L235 423H119L302 754H472ZM728 754L491 423H375L558 754H728Z"  />
<glyph unicode="&#x201E;" horiz-adv-x="594" d="M349 191L112 -140H-3L179 191H349ZM605 191L368 -140H252L435 191H605Z"  />
<glyph unicode="&#x2020;" horiz-adv-x="686" d="M545 754L512 549H689L667 405H490L397 -180H231L324 405H148L170 549H346L379 754H545Z"  />
<glyph unicode="&#x2021;" horiz-adv-x="686" d="M546 754L517 569H693L670 425H494L471 283H647L625 139H449L398 -179H232L283 139H106L128 283H305L328 425H151L174 569H351L380 754H546Z"  />
<glyph unicode="&#x2022;" horiz-adv-x="686" d="M433 566Q473 566 505 551T559 511T588 451T591 377Q585 338 566 304T517 245T450 204T373 189Q332 189 300 204T247 244T217 304T214 377Q220 416 240 450T289 510T355 551T433 566Z"  />
<glyph unicode="&#x2026;" horiz-adv-x="1000" d="M533 214Q557 214 577 205T610 180T630 143T632 97Q628 73 616 52T585 15T543 -10T496 -20Q472 -20 452 -11T419 14T400 51T398 97Q402 121 414 142T445 180T486 205T533 214ZM866 214Q890 214 910 205T943 180T963 143T965 97Q961 73 949 52T918 15T876 -10T829 -20Q805 -20 785 -11T752 14T733 51T731 97Q735 121 747 142T778 180T819 205T866 214ZM200 214Q224 214 244 205T277 180T297 143T299 97Q295 73 283 52T252 15T210 -10T163 -20Q139 -20 119 -11T86 14T67 51T65 97Q69 121 81 142T112 180T153 205T200 214Z"  />
<glyph unicode="&#x2030;" horiz-adv-x="1460" d="M346 764Q388 764 423 753T483 718T519 660T523 581Q515 535 494 501T441 443T370 407T287 395Q244 395 208 407T148 442T114 500T111 581Q118 626 140 660T193 717T264 752T346 764ZM330 664Q312 664 296 658T266 640T243 613T231 579Q226 544 247 520T303 495Q321 495 337 501T367 519T389 546T401 579Q407 614 386 639T330 664ZM874 754L317 0H219L776 754H874ZM806 359Q848 359 883 348T943 313T979 255T983 176Q976 130 955 96T902 38T831 2T748 -10Q705 -10 669 2T609 37T575 95T571 176Q578 221 600 255T653 312T724 347T806 359ZM791 259Q773 259 757 253T727 235T704 208T692 174Q687 139 708 115T764 90Q782 90 798 96T828 114T850 141T862 174Q868 209 847 234T791 259ZM1291 359Q1333 359 1368 348T1428 313T1464 255T1468 176Q1461 130 1440 96T1387 38T1316 2T1233 -10Q1190 -10 1154 2T1094 37T1060 95T1056 176Q1063 221 1085 255T1138 312T1209 347T1291 359ZM1276 259Q1258 259 1242 253T1212 235T1189 208T1177 174Q1172 139 1193 115T1249 90Q1267 90 1283 96T1313 114T1335 141T1347 174Q1353 209 1332 234T1276 259Z"  />
<glyph unicode="&#x2039;" horiz-adv-x="354" d="M324 146L209 74L76 320L287 566L376 497L222 320L324 146Z"  />
<glyph unicode="&#x203A;" horiz-adv-x="354" d="M232 320L134 497L245 566L378 320L167 74L76 146L232 320Z"  />
<glyph unicode="&#x20AC;" horiz-adv-x="686" d="M640 24Q610 8 561 -3T452 -14Q386 -14 332 7T240 65T180 155T159 271H60L99 348H162Q162 356 163 363T165 378Q167 385 168 392T172 407H87L126 486H186Q208 546 248 597T343 686T465 745T607 767Q628 767 651 765T696 760T739 751T775 739L690 586Q670 597 642 602T583 607Q553 607 523 599T465 575T417 537T383 486H652L615 407H362Q360 399 359 393T356 378Q355 371 354 364T353 348H591L552 271H350Q354 238 368 215T402 177T446 156T496 149Q534 149 569 157T631 180L640 24Z"  />
<glyph unicode="&#x2122;" horiz-adv-x="940" d="M954 350H866L918 676H916L747 350H695L630 676H628L576 350H488L552 754H694L747 515L876 754H1018L954 350ZM491 676H368L316 350H219L271 676H148L160 754H503L491 676Z"  />

</font>
</defs>
</svg>
